<svg height="20" width="20" class="icon" viewBox="0 0 1024 1024" xmlns="http://www.w3.org/2000/svg"><defs><style/></defs><path d="M679.272 148.634h-448.18c-14.367 0-25.99 11.914-25.99 26.644v666.094c0 14.702 11.623 26.638 25.99 26.638h571.673c14.356 0 25.99-11.936 25.99-26.638V298.857L679.272 148.634z" fill="#8183F1"/><path d="M828.755 298.857L679.271 148.634h-19.484v132.817c0 20.477 16.172 37.036 36.127 37.036h132.84v-19.63z" fill="#7A7CEF"/><path d="M705.262 298.857h123.494L679.272 148.634v123.58c0 14.73 11.634 26.643 25.99 26.643z" fill="#9799F7"/><path d="M498.274 694.244c-49.126 0-89.095-39.224-89.095-87.436s39.969-87.436 89.095-87.436a90.835 90.835 0 0 1 23.94 3.202l-32.138-118.888-.034-.14c-.893-3.66-8.271-36.343 7.57-56.515 5.221-6.649 15.172-14.574 32.933-14.574 3.839 0 7.962.372 12.257 1.105 15.526 2.652 24.624 8.245 31.936 12.74 7.097 4.361 11.784 7.243 21.576 7.243 9.311 0 22.091-2.664 39.072-8.142l1.737-.56 1.894-.011c4.096 0 9.606 2.361 11.654 9.018 3.551 11.539-1.33 48.314-34.483 70.85-10.201 6.935-22.28 10.45-35.896 10.45h-.005c-8.59 0-16.758-1.428-23.718-3.266 3.6 17.109 8.937 42.752 14.135 68.772 18.603 93.114 17.374 100.114 16.713 103.874l-.068.363c.016.658.024 1.293.024 1.915-.002 48.212-39.97 87.436-89.099 87.436z" fill="#6668EE"/><path d="M638.947 356.445c-69.471 22.415-58.995-4.765-98.101-11.446-55.458-9.471-39.533 55.797-39.533 55.797l38.36 141.9c-11.977-7.422-26.174-11.722-41.399-11.722-42.797 0-77.493 33.952-77.493 75.833s34.696 75.833 77.493 75.833c42.8 0 77.494-33.952 77.494-75.833 0-1.09-.03-2.174-.075-3.253.122-.277.22-.618.293-1.03 2.422-13.785-35.14-188.851-35.14-188.851s39.688 21.231 68.817 1.431c33.495-22.767 31.576-59.398 29.284-58.659z" fill="#FFF"/></svg>