<svg height="20" width="20" class="icon" viewBox="0 0 1024 1024" xmlns="http://www.w3.org/2000/svg"><defs><style/></defs><path d="M679.272 148.634h-448.18c-14.367 0-25.99 11.914-25.99 26.644v666.094c0 14.702 11.623 26.638 25.99 26.638h571.673c14.356 0 25.99-11.936 25.99-26.638V298.857L679.272 148.634z" fill="#9adeb9"/><path d="M828.755 298.857L679.271 148.634h-19.484v132.817c0 20.477 16.172 37.036 36.127 37.036h132.84v-19.63z" fill="#9adeb9"/><path d="M705.262 298.857h123.494L679.272 148.634v123.58c0 14.73 11.634 26.643 25.99 26.643zM440.692 677.948c-66.209 0-120.073-49.734-120.073-110.864 0-29.096 12.107-56.581 34.092-77.395 19.217-18.195 44.198-29.58 71.217-32.632 3.182-26.211 14.454-50.42 32.318-69.03 20.496-21.35 47.514-33.109 76.076-33.109 60.284 0 109.33 52.717 109.33 117.514l-.002.558c42.585 14.575 69.591 52.573 69.591 99.21 0 58.31-55.472 105.748-123.656 105.748H440.692z" fill="#9adeb9"/><path d="M631.685 481.54c.236-3.003.363-6.04.363-9.108 0-58.493-43.753-105.911-97.726-105.911-52.57 0-95.437 44.987-97.63 101.376-58.052 1.926-104.47 45.592-104.47 99.186 0 54.82 48.565 99.26 108.471 99.26h148.892c61.885 0 112.053-42.15 112.053-94.144 0-43.174-25.776-79.558-69.953-90.66z" fill="#9adeb9"/></svg>