<svg height="20" width="20" class="icon" viewBox="0 0 1024 1024" xmlns="http://www.w3.org/2000/svg"><defs><style/></defs><path d="M679.272 148.634h-448.18c-14.367 0-25.99 11.914-25.99 26.644v666.094c0 14.702 11.623 26.638 25.99 26.638h571.673c14.356 0 25.99-11.936 25.99-26.638V298.857L679.272 148.634z" fill="#5EC7FB"/><path d="M828.755 298.857L679.271 148.634h-19.484v132.817c0 20.477 16.172 37.036 36.127 37.036h132.84v-19.63z" fill="#53C3FA"/><path d="M705.262 298.857h123.494L679.272 148.634v123.58c0 14.73 11.634 26.643 25.99 26.643z" fill="#7ED3FD"/><path d="M322.775 669.768l-14.623-29.696V544.03h431.889v96.04l-14.622 29.697H322.775zm366.815-71.246v-4.04h-31.285v4.04h31.285zm-81.737 0v-4.04H576.57v4.04h31.284zm-31.202-58.53l2.824-13.911a57 57 0 0 0 1.133-11.315c0-31.16-25.35-56.511-56.511-56.511s-56.512 25.35-56.512 56.511c0 3.804.382 7.61 1.134 11.314l2.826 13.912H336.763l-.816-10.724a192.35 192.35 0 0 1-.55-14.502c0-104.049 84.65-188.699 188.7-188.699 104.048 0 188.698 84.65 188.698 188.699 0 4.83-.185 9.71-.55 14.502l-.814 10.724h-134.78z" fill="#44BEFA"/><path d="M457.348 528.388a68.439 68.439 0 0 1-1.365-13.623c0-37.618 30.496-68.114 68.115-68.114 37.617 0 68.114 30.495 68.114 68.114 0 4.665-.472 9.221-1.365 13.623h109.831c.342-4.496.516-9.039.516-13.623 0-97.806-79.29-177.096-177.096-177.096S347 416.959 347 514.765c0 4.583.174 9.127.516 13.623h109.831zm-137.592 27.246v81.736l10.239 20.795h388.203l10.24-20.795v-81.736H319.755zm299.7 54.49h-54.49V582.88h54.49v27.246zm81.737 0h-54.491V582.88h54.49v27.246z" fill="#FFF"/></svg>