<svg height="16" width="16" class="icon" viewBox="0 0 1024 1024" xmlns="http://www.w3.org/2000/svg"><defs><style/></defs><path d="M679.272 148.634h-448.18c-14.367 0-25.99 11.914-25.99 26.644v666.094c0 14.702 11.623 26.638 25.99 26.638h571.673c14.356 0 25.99-11.936 25.99-26.638V298.857L679.272 148.634z" fill="#FF7743"/><path d="M828.755 298.857L679.271 148.634h-19.484v132.817c0 20.477 16.172 37.036 36.127 37.036h132.84v-19.63z" fill="#FF7039"/><path d="M705.262 298.857h123.494L679.272 148.634v123.58c0 14.73 11.634 26.643 25.99 26.643z" fill="#FFAA8B"/><path d="M329.303 640.693c-15.682 0-29.693-9.357-35.695-23.836-6.003-14.485-2.714-31.006 8.378-42.09l72.304-72.254c7.293-7.291 16.995-11.307 27.316-11.307 10.32 0 20.02 4.016 27.317 11.309l19.716 19.702 91.08-91.017c7.295-7.292 16.996-11.309 27.315-11.309 10.318 0 20.02 4.016 27.317 11.309l143.667 143.568c11.092 11.082 14.381 27.603 8.377 42.09-6.002 14.478-20.012 23.835-35.692 23.835h-381.4zm71.51-187.311c-28.584 0-51.84-23.243-51.84-51.813s23.256-51.813 51.84-51.813 51.841 23.243 51.841 51.813-23.255 51.813-51.84 51.813z" fill="#FF5A1B"/><path d="M729.815 582.974L586.149 439.407c-10.558-10.55-27.675-10.55-38.23 0l-99.281 99.213-27.919-27.9a27.037 27.037 0 0 0-19.114-7.91 27.037 27.037 0 0 0-19.115 7.91l-72.303 72.255a27.002 27.002 0 0 0-5.86 29.439 27.033 27.033 0 0 0 24.975 16.677H710.7a27.033 27.033 0 0 0 24.974-16.677 26.998 26.998 0 0 0-5.86-29.44zM400.813 441.78c22.223 0 40.237-18.003 40.237-40.211s-18.015-40.21-40.237-40.21c-22.223 0-40.238 18.002-40.238 40.21s18.016 40.21 40.238 40.21z" fill="#FFF"/></svg>