<svg height="20" width="20" class="icon" viewBox="0 0 1024 1024" xmlns="http://www.w3.org/2000/svg"><defs><style/></defs><path d="M531.5 654.595V305.949h-40.652v348.649L366.346 529.542l-28.903 29.04 173.43 174.226.29-.29.287.29 173.451-174.226-28.922-29.04L531.5 654.595zM511.175 63.053c-246.976 0-447.185 200.209-447.185 447.185 0 246.956 200.209 447.185 447.185 447.185s447.184-200.229 447.184-447.185c0-246.976-200.208-447.185-447.184-447.185zm0 853.717c-224.525 0-406.532-182.006-406.532-406.531 0-224.526 182.007-406.531 406.532-406.531s406.53 182.005 406.53 406.53c.002 224.526-182.006 406.532-406.53 406.532z"/></svg>