<svg height="20" width="20" class="icon" viewBox="0 0 1024 1024" xmlns="http://www.w3.org/2000/svg"><defs><style/></defs><path d="M679.272 148.634h-448.18c-14.367 0-25.99 11.914-25.99 26.644v666.094c0 14.702 11.623 26.638 25.99 26.638h571.673c14.356 0 25.99-11.936 25.99-26.638V298.857L679.272 148.634z" fill="#FF5A5A"/><path d="M828.755 298.857L679.271 148.634h-19.484v132.817c0 20.477 16.172 37.036 36.127 37.036h132.84v-19.63z" fill="#FF5050"/><path d="M705.262 298.857h123.494L679.272 148.634v123.58c0 14.73 11.634 26.643 25.99 26.643z" fill="#FFA3A3"/><path d="M699.923 626.477c-5.543 1.593-11.899 2.394-19.04 2.394-25.315 0-65.151-7.291-98.38-23.533-54.863 6.162-93.326 13.364-124.333 23.265-.568.222-1.17.447-1.806.684l-.39.146c-41.656 70.592-72.422 100.776-102.585 100.776-6.996 0-13.852-1.751-19.307-4.928l-.203-.118-17.636-11.39-2.64-4.394-.316-.812c-3.084-7.929-3.746-15.298-2.084-23.19 3.916-18.877 22.991-48.38 64.75-74.568 5.83-4.242 14.279-8.969 27.084-15.142 8.05-14.114 17.34-31.602 29.048-54.682 15.52-31.347 25.534-62.779 33.247-89.694-11.494-37.634-18.749-63.353-6.364-108.016 3.873-15.983 18.097-32.44 35.325-32.44h7.72c10.406 0 19.944 3.805 26.857 10.714 24.284 24.284 15.958 74.677 3.342 125.516l-.097.389-.127.38c-.096.29-.185.577-.267.86 12.137 33.114 28.802 59.58 47.126 74.765 8.1 6.22 15.922 11.52 23.817 16.134 12.9-1.318 25.79-1.96 39.289-1.96 44.59 0 70.664 8.598 82.057 27.056 4.61 7.38 6.466 15.688 5.351 24.02-.546 10.657-4.631 20.111-11.835 27.382a32.458 32.458 0 0 1-1.977 1.977c.002-.001-11.044 6.4-15.626 8.41zM503.506 512.513c-6.726 17.743-15.064 36.19-25.213 55.813a661.583 661.583 0 0 1-4.453 8.273l-1.387 2.55c21.79-7.484 44.601-13.838 68.174-18.99-13.814-12.547-26.24-28.504-37.121-47.646z" fill="#FD4848"/><path d="M715.303 570.063c-9.33-15.117-33.457-22.196-73.348-22.196-13.19 0-27.025.645-41.5 2.253-10.295-5.79-19.622-12.226-27.987-18.659-20.266-16.73-38.605-46.005-51.473-82.356.321-.966.645-2.575 1.287-4.504 10.618-42.788 20.591-94.58-.642-115.813-5.149-5.145-12.227-7.72-19.625-7.72h-7.72c-11.905 0-22.52 12.547-25.416 24.77-11.901 42.788-4.825 66.272 7.078 105.199v.32c-8.044 28.309-18.338 61.122-34.744 94.259-10.936 21.555-21.23 41.176-30.883 57.906-12.868 6.113-22.52 11.26-28.632 15.764-38.605 24.128-56.943 51.15-60.48 68.2-1.287 6.112-.645 11.58 1.607 17.371l.966 1.608 15.443 9.973c3.861 2.25 9.007 3.538 14.156 3.538 26.057 0 55.653-30.562 95.545-98.762 2.253-.966 4.183-1.61 5.79-2.253 33.135-10.618 74.314-18.016 129.646-24.128 32.172 16.405 72.062 23.805 96.511 23.805 14.156 0 23.806-3.54 29.275-9.653v.005c5.791-5.79 8.686-13.19 9.007-21.234.963-6.433-.644-12.544-3.86-17.693zm-313.336 63.051c-20.912 38.282-39.893 59.515-54.368 64.34 1.608-12.227 16.085-33.46 38.926-54.368 3.219-2.575 8.686-6.113 15.443-9.974v.002h-.001zm94.903-288.243c.645-1.288 1.611-2.895 2.254-3.862l4.825 1.607c5.47 7.721 6.112 17.048 2.895 35.386l-.966 5.148c-1.932 7.079-2.895 16.086-5.149 26.38l-1.605 1.285v.005l-.002-.002.002-.001c-7.402-28.952-7.723-52.437-2.254-65.946zm-40.212 250.922l-3.538 1.288c2.574-9.652 9.65-21.233 16.084-33.457 14.477-27.987 25.093-53.403 32.491-77.208l.001-.003c13.189 28.954 29.92 52.76 49.22 69.167 3.861 3.536 8.365 7.077 13.19 10.294-27.988 5.15-66.593 14.155-107.448 29.92zm240.31-1.929h-1.287c-1.929.322-3.858.643-6.112.643-14.798 0-37.639-6.112-61.123-16.406 2.895-3.216 5.145-3.216 7.399-3.216 45.038 0 57.906 8.043 61.123 11.26 1.608 1.284 2.253 2.57 2.896 3.537-.322 3.216-1.288 3.54-2.895 4.182z" fill="#FFF"/></svg>