<svg height="20" width="20" class="icon" viewBox="0 0 1024 1024" xmlns="http://www.w3.org/2000/svg"><defs><style/></defs><path d="M679.272 148.634h-448.18c-14.367 0-25.99 11.914-25.99 26.644v666.094c0 14.702 11.623 26.638 25.99 26.638h571.673c14.356 0 25.99-11.936 25.99-26.638V298.857L679.272 148.634z" fill="#FF9743"/><path d="M828.755 298.857L679.271 148.634h-19.484v132.817c0 20.477 16.172 37.036 36.127 37.036h132.84v-19.63z" fill="#FF923B"/><path d="M705.262 298.857h123.494L679.272 148.634v123.58c0 14.73 11.634 26.643 25.99 26.643z" fill="#FFBF8C"/><path d="M443.716 683.449c-6.764 0-12.332-.27-17.02-.82-5.039-.592-9.066-1.408-12.311-2.493-4.732-1.576-8.367-4.02-10.792-7.26a18.845 18.845 0 0 1-3.792-11.391v-287.11c0-10.979 3.234-19.646 9.615-25.764 6.246-5.989 14.3-9.025 23.94-9.025h75.231c7.834 0 15.421.304 22.555.904 7.228.613 15.912 1.917 25.823 3.88 10.573 2.098 21.368 5.992 32.087 11.574 11.007 5.737 20.55 13.128 28.369 21.967 7.883 8.917 13.958 19.436 18.057 31.267 4.027 11.629 6.067 24.731 6.067 38.948 0 19.333-3.106 36.814-9.233 51.957-6.246 15.431-15.495 28.633-27.487 39.241-11.858 10.49-26.5 18.549-43.518 23.95-16.603 5.27-36.249 7.945-58.393 7.945h-15.036v90.267c0 4.307-1.452 8.372-4.199 11.754-2.485 3.055-6.064 5.376-10.644 6.9-3.222 1.078-7.2 1.892-12.151 2.485-4.613.554-10.23.824-17.168.824zm61.664-185.507c8.832 0 16.138-1.13 21.713-3.363 5.338-2.134 9.512-4.958 12.763-8.633 3.415-3.856 5.96-8.418 7.784-13.951 1.903-5.78 2.87-12.237 2.87-19.183 0-9.166-1.515-16.59-4.503-22.07-2.926-5.363-6.404-9.279-10.338-11.64-4.455-2.672-8.971-4.307-13.801-4.999-5.774-.821-11.82-1.239-17.967-1.239h-16.023v85.078h17.502z" fill="#FF8522"/><path d="M629.943 448.126c0 17.926-2.798 33.793-8.386 47.605-5.592 13.814-13.732 25.45-24.419 34.902-10.69 9.458-23.802 16.65-39.341 21.583-15.54 4.933-33.835 7.4-54.882 7.4h-26.64v101.87c0 1.645-.535 3.126-1.602 4.44-1.072 1.318-2.837 2.385-5.304 3.207-2.466.825-5.757 1.48-9.867 1.973-4.112.493-9.373.74-15.786.74-6.252 0-11.47-.246-15.663-.74-4.193-.493-7.523-1.148-9.99-1.973-2.467-.822-4.193-1.89-5.18-3.207a7.21 7.21 0 0 1-1.48-4.44v-287.11c0-7.728 2.013-13.524 6.044-17.39 4.027-3.862 9.33-5.798 15.909-5.798h75.231c7.563 0 14.757.29 21.583.864 6.822.578 15.004 1.811 24.542 3.7 9.535 1.892 19.197 5.388 28.982 10.483 9.783 5.1 18.13 11.555 25.036 19.363 6.906 7.812 12.168 16.939 15.787 27.379 3.615 10.445 5.426 22.161 5.426 35.15zm-67.83 4.687c0-11.18-1.974-20.388-5.92-27.626-3.946-7.234-8.799-12.58-14.553-16.033-5.758-3.454-11.8-5.63-18.13-6.536-6.332-.902-12.868-1.357-19.61-1.357h-27.626v108.283h29.106c10.36 0 19.033-1.395 26.024-4.193 6.987-2.794 12.702-6.699 17.142-11.717 4.44-5.015 7.808-11.015 10.114-18.006 2.3-6.987 3.452-14.59 3.452-22.815z" fill="#FFF"/></svg>