<svg height="20" width="20" class="icon" viewBox="0 0 1024 1024" xmlns="http://www.w3.org/2000/svg"><defs><style/></defs><path d="M679.272 148.634h-448.18c-14.367 0-25.99 11.914-25.99 26.644v666.094c0 14.702 11.623 26.638 25.99 26.638h571.673c14.356 0 25.99-11.936 25.99-26.638V298.857L679.272 148.634z" fill="#4D97FF"/><path d="M828.755 298.857L679.271 148.634h-19.484v132.817c0 20.477 16.172 37.036 36.127 37.036h132.84v-19.63z" fill="#3F8EFF"/><path d="M705.262 298.857h123.494L679.272 148.634v123.58c0 14.73 11.634 26.643 25.99 26.643z" fill="#B5DDFF"/><path d="M501.681 683.449c-6.765 0-12.332-.27-17.02-.82-5.04-.592-9.067-1.408-12.311-2.493-4.58-1.524-8.164-3.85-10.64-6.907-2.734-3.353-4.19-7.424-4.19-11.744V415.824h-68.315c-4.428 0-8.491-1.48-11.751-4.28-2.578-2.208-4.66-5.263-6.18-9.067-1.203-3.002-2.054-6.621-2.59-11.043-.47-3.85-.701-8.304-.701-13.605 0-5.453.228-10.018.698-13.955.532-4.497 1.383-8.165 2.6-11.202 1.58-3.954 3.788-7.068 6.56-9.246 3.2-2.514 7.127-3.838 11.363-3.838h224.953c3.928 0 7.704 1.243 10.92 3.594 3.012 2.214 5.361 5.4 7 9.484 1.218 3.049 2.067 6.708 2.605 11.207.464 3.932.7 8.623.7 13.957 0 5.186-.236 9.764-.702 13.604-.542 4.428-1.39 8.04-2.596 11.054-1.577 3.934-3.799 7.067-6.608 9.314-3.29 2.632-7.204 4.023-11.32 4.023h-68.313v245.662c0 4.307-1.452 8.372-4.2 11.754-2.482 3.054-6.063 5.375-10.643 6.9-3.232 1.081-7.26 1.897-12.301 2.488-4.686.55-10.254.82-17.018.82z" fill="#2C84FF"/><path d="M623.777 377.828c0 4.772-.209 8.842-.617 12.21-.413 3.372-1.03 6.085-1.851 8.14-.825 2.058-1.85 3.576-3.084 4.563-1.233.986-2.59 1.48-4.07 1.48h-79.918v257.265c0 1.645-.535 3.126-1.602 4.44-1.071 1.318-2.837 2.385-5.304 3.207-2.466.825-5.796 1.48-9.99 1.973-4.194.493-9.415.74-15.663.74-6.251 0-11.47-.246-15.663-.74-4.193-.493-7.523-1.148-9.99-1.973-2.467-.822-4.235-1.89-5.303-3.207-1.072-1.314-1.603-2.794-1.603-4.44V404.22h-79.918c-1.645 0-3.044-.493-4.193-1.48-1.153-.986-2.139-2.504-2.96-4.562-.826-2.054-1.442-4.768-1.85-8.14-.413-3.37-.618-7.44-.618-12.21 0-4.933.205-9.126.617-12.58.408-3.453 1.025-6.204 1.85-8.263.821-2.053 1.808-3.534 2.96-4.44 1.15-.901 2.549-1.357 4.194-1.357h224.953c1.48 0 2.836.455 4.07 1.357 1.233.906 2.259 2.387 3.084 4.44.821 2.058 1.437 4.81 1.85 8.264.41 3.453.619 7.647.619 12.58z" fill="#FFF"/></svg>