<svg height="20" width="20" class="icon" viewBox="0 0 1024 1024" xmlns="http://www.w3.org/2000/svg"><defs><style/></defs><path d="M679.272 148.634h-448.18c-14.367 0-25.99 11.914-25.99 26.644v666.094c0 14.702 11.623 26.638 25.99 26.638h571.673c14.356 0 25.99-11.936 25.99-26.638V298.857L679.272 148.634z" fill="#8183F1"/><path d="M828.755 298.857L679.271 148.634h-19.484v132.817c0 20.477 16.172 37.036 36.127 37.036h132.84v-19.63z" fill="#7A7CEF"/><path d="M705.262 298.857h123.494L679.272 148.634v123.58c0 14.73 11.634 26.643 25.99 26.643z" fill="#9799F7"/><path d="M666.738 604.689c9.874-1.892 17.359-10.594 17.359-21.012V438.49c0-11.796-9.597-21.391-21.393-21.391-5.755 0-11.31 2.366-15.336 6.513l-65.433 58.995v-43.61c0-24.988-20.33-45.316-45.316-45.316h-143.59c-24.987 0-45.315 20.328-45.315 45.315v143.59c0 24.987 20.328 45.316 45.315 45.316h143.59c24.987 0 45.316-20.33 45.316-45.316v-37.204l67.088 54.724s8.214 6.425 17.715 4.583z" fill="#6C6EEF"/><path d="M534.242 404.534H395.408c-20.262 0-36.84 16.578-36.84 36.84v138.834c0 20.262 16.578 36.84 36.84 36.84h138.834c20.261 0 36.839-16.578 36.839-36.84V441.373c0-20.261-16.578-36.839-36.84-36.839zm128.462 23.418c-2.339 0-4.498.782-6.252 2.083-.542.403-1.045.856-1.5 1.353l-66.31 59.785v45.673l67.243 54.848v-.01a10.477 10.477 0 0 0 6.82 2.53c5.796 0 10.538-4.742 10.538-10.538V438.49c0-5.796-4.743-10.538-10.539-10.538z" fill="#FFF"/></svg>