<svg height="20" width="20" class="icon" viewBox="0 0 1024 1024" xmlns="http://www.w3.org/2000/svg"><defs><style/></defs><path d="M679.272 148.634h-448.18c-14.367 0-25.99 11.914-25.99 26.644v666.094c0 14.702 11.623 26.638 25.99 26.638h571.673c14.356 0 25.99-11.936 25.99-26.638V298.857L679.272 148.634z" fill="#3E9AE8"/><path d="M828.755 298.857L679.271 148.634h-19.484v132.817c0 20.477 16.172 37.036 36.127 37.036h132.84v-19.63z" fill="#3F8EFF"/><path d="M705.262 298.857h123.494L679.272 148.634v123.58c0 14.73 11.634 26.643 25.99 26.643z" fill="#77B3FF"/><path d="M598.648 648.323c-8.303 0-15.254-.22-20.66-.655-6.136-.495-10.977-1.375-14.8-2.686-5.078-1.74-9.034-4.44-11.758-8.02-2.245-2.942-3.913-6.52-4.954-10.632l-25.817-93.287-23.717 93.147c-1.007 4.237-2.534 7.764-4.658 10.736-2.681 3.755-6.737 6.558-12.06 8.334-3.94 1.312-8.847 2.144-15.006 2.544-5.345.343-12.236.518-20.485.518-8.474 0-15.472-.221-20.799-.656-6.046-.496-10.842-1.375-14.662-2.685-5.076-1.74-9.032-4.438-11.757-8.019-2.235-2.927-3.896-6.483-4.937-10.561L334.46 427.67c-1.647-5.312-2.696-9.52-3.194-12.82-.502-3.304-.746-6.088-.746-8.511 0-4.105 1.247-7.974 3.608-11.186 2.423-3.314 5.972-5.661 10.847-7.173 3.208-.996 7.167-1.679 12.106-2.085 4.345-.353 9.767-.532 16.12-.532 6.838 0 12.541.178 16.954.53 5.183.418 9.302 1.191 12.592 2.363 4.752 1.704 8.332 4.374 10.648 7.94 1.591 2.47 2.801 5.317 3.6 8.47l32.574 120.543 30.536-120.487c.872-3.489 2.346-6.607 4.377-9.26 2.38-3.11 5.693-5.5 9.847-7.102 3.19-1.227 7.175-2.031 12.186-2.461 4.195-.356 9.549-.535 15.916-.535 6.44 0 11.836.23 16.043.682 4.665.51 8.402 1.248 11.428 2.256 4.532 1.511 8.022 3.9 10.371 7.103 1.69 2.31 2.987 4.947 3.856 7.845l.077.266 33.097 122.716 31.442-121.142c.653-3.463 1.941-6.578 3.833-9.26 2.396-3.385 5.93-5.93 10.507-7.568 3.28-1.172 7.307-1.944 12.31-2.365 4.274-.354 9.662-.533 16.019-.533 6.362 0 11.711.18 15.902.534 4.846.416 8.711 1.123 11.816 2.158 4.704 1.568 8.25 4.095 10.537 7.513 2.12 3.189 3.194 6.81 3.194 10.77 0 2.559-.308 5.437-.94 8.803-.545 2.911-1.496 6.9-2.905 12.19l-58.789 199.35c-1.236 4.199-2.905 7.642-5.1 10.528-2.688 3.52-6.493 6.195-11.308 7.948-3.782 1.374-8.623 2.239-14.799 2.646-5.264.343-12.119.518-20.374.518z" fill="#1E7BFF"/><path d="M701.258 406.34c0 1.812-.246 4.031-.74 6.66-.493 2.633-1.4 6.413-2.713 11.347L639.1 623.4c-.825 2.798-1.892 5.056-3.206 6.784-1.318 1.727-3.33 3.083-6.043 4.07-2.714.987-6.58 1.642-11.593 1.973-5.018.328-11.555.494-19.61.494-8.058 0-14.638-.208-19.732-.617-5.098-.413-9.088-1.11-11.962-2.097-2.879-.987-4.976-2.344-6.29-4.071-1.318-1.727-2.304-3.904-2.96-6.537L520.705 489.71l-.493-2.22-.492 2.22-34.04 133.69c-.658 2.797-1.602 5.055-2.836 6.783-1.233 1.727-3.33 3.083-6.29 4.07-2.96.987-6.99 1.642-12.086 1.973-5.098.328-11.678.494-19.732.494-8.224 0-14.842-.208-19.856-.618-5.018-.412-8.964-1.11-11.84-2.096-2.878-.987-4.975-2.344-6.29-4.071-1.317-1.727-2.304-3.904-2.96-6.537L345.58 424.345c-1.48-4.768-2.429-8.51-2.837-11.223-.412-2.713-.617-4.971-.617-6.782 0-1.642.45-3.084 1.357-4.317.901-1.233 2.547-2.22 4.933-2.96 2.383-.74 5.589-1.272 9.62-1.604 4.027-.327 9.083-.493 15.169-.493 6.575 0 11.92.166 16.032.493 4.109.332 7.315.906 9.62 1.728 2.302.824 3.904 1.935 4.81 3.33.901 1.398 1.603 3.083 2.096 5.056l43.658 161.562.493 2.96.493-2.96 40.946-161.561c.493-1.973 1.272-3.658 2.343-5.057 1.067-1.394 2.67-2.505 4.81-3.33 2.134-.82 5.138-1.394 9.003-1.727 3.86-.327 8.837-.493 14.923-.493 6.081 0 11.014.209 14.799.617 3.78.413 6.783.987 9.003 1.727 2.22.74 3.78 1.727 4.686 2.96.903 1.234 1.604 2.676 2.097 4.317l43.905 162.795.741 2.714.492-2.96 41.933-161.562c.328-1.973.987-3.658 1.973-5.056.988-1.395 2.629-2.506 4.934-3.33 2.3-.821 5.426-1.395 9.372-1.728 3.947-.327 8.961-.493 15.047-.493 6.081 0 11.057.166 14.923.493 3.86.332 6.906.864 9.125 1.604 2.221.74 3.739 1.727 4.564 2.96.821 1.232 1.233 2.673 1.233 4.316z" fill="#FFF"/></svg>