<svg height="20" width="20" class="icon" viewBox="0 0 1024 1024" xmlns="http://www.w3.org/2000/svg"><defs><style/></defs><path d="M679.272 148.634h-448.18c-14.367 0-25.99 11.914-25.99 26.644v666.094c0 14.702 11.623 26.638 25.99 26.638h571.673c14.356 0 25.99-11.936 25.99-26.638V298.857L679.272 148.634z" fill="#63C422"/><path d="M828.755 298.857L679.271 148.634h-19.484v132.817c0 20.477 16.172 37.036 36.127 37.036h132.84v-19.63z" fill="#58C013"/><path d="M705.262 298.857h123.494L679.272 148.634v123.58c0 14.73 11.634 26.643 25.99 26.643z" fill="#ACE189"/><path d="M610.704 683.449c-8.07 0-14.32-.172-19.107-.526-5.312-.396-9.518-1.06-12.863-2.031-4.716-1.369-8.44-3.591-11.065-6.604-1.851-2.113-3.44-4.673-4.71-7.596L513.54 571.72 464.167 667c-1.41 2.805-3.026 5.26-4.805 7.296-2.633 3.01-6.35 5.227-11.052 6.594-3.362.975-7.61 1.639-12.998 2.033-4.807.348-11.107.525-18.73.525-9.04 0-15.933-.264-21.071-.805-7.7-.809-13.221-3.165-16.878-7.2-2.53-2.778-6.379-8.951-3.546-18.87 1.233-4.314 3.563-9.6 7.126-16.162l73.444-133.86-68.113-125.581-.085-.173c-3.292-6.584-5.508-11.825-6.774-16.021-3.363-11.09 2.042-17.553 4.521-19.815 3.922-3.586 9.443-5.559 17.368-6.2 5.422-.434 13.037-.654 22.641-.654 7.95 0 14.416.176 19.215.523 5.37.394 9.63 1.05 13.03 2.006 4.96 1.397 8.796 3.724 11.403 6.92 1.597 1.972 3.07 4.298 4.402 6.944l45.543 85.87 44.307-85.809c1.37-2.73 2.818-5.018 4.425-6.993 2.528-3.112 6.144-5.416 10.743-6.844 3.218-1 7.272-1.683 12.39-2.087 4.563-.358 10.546-.53 18.303-.53 8.477 0 15.367.22 20.475.659 7.654.662 13.236 2.846 17.075 6.679 2.78 2.784 7.022 8.937 4.386 19.034-1.1 4.194-3.154 9.45-6.284 16.081l-.146.306L576.3 505.87l72.841 134.773c3.378 6.57 5.57 11.86 6.701 16.174 1.986 7.605.168 14.67-4.99 19.393-3.962 3.639-9.516 5.692-17.467 6.448-5.594.532-13.014.792-22.68.792z" fill="#49BA00"/><path d="M638.822 645.947c2.96 5.758 4.89 10.36 5.796 13.812.903 3.454.37 6.086-1.602 7.894-1.973 1.812-5.55 2.96-10.73 3.453-5.18.493-12.375.74-21.582.74-7.732 0-13.813-.165-18.253-.493-4.44-.33-7.935-.863-10.482-1.602-2.552-.741-4.403-1.765-5.55-3.083-1.153-1.315-2.14-2.96-2.961-4.934l-59.937-115.19-59.693 115.19c-.986 1.974-2.058 3.619-3.206 4.934-1.152 1.318-3.002 2.342-5.55 3.083-2.551.74-6.086 1.272-10.607 1.602-4.524.328-10.483.494-17.882.494-8.552 0-15.17-.247-19.856-.741-4.687-.493-7.855-1.642-9.497-3.453-1.645-1.808-1.973-4.44-.986-7.894.986-3.452 3.041-8.054 6.166-13.812l76.465-139.362-71.038-130.976c-2.96-5.92-4.975-10.645-6.043-14.183-1.071-3.535-.659-6.167 1.233-7.893 1.888-1.727 5.384-2.794 10.483-3.207 5.095-.408 12.333-.617 21.705-.617 7.728 0 13.852.166 18.377.493 4.52.332 8.097.863 10.73 1.602 2.628.74 4.477 1.77 5.55 3.084 1.067 1.318 2.097 2.96 3.083 4.933l55.992 105.57 54.512-105.57c.986-1.973 2.012-3.615 3.084-4.933 1.067-1.314 2.794-2.344 5.18-3.084 2.381-.74 5.673-1.271 9.867-1.602 4.193-.327 9.99-.493 17.389-.493 8.22 0 14.715.209 19.486.617 4.767.412 8.055 1.522 9.866 3.33 1.808 1.81 2.259 4.439 1.357 7.892-.905 3.454-2.756 8.14-5.55 14.06L563.1 505.844l75.722 140.103z" fill="#FFF"/></svg>