<svg height="20" width="20" class="icon" viewBox="0 0 1024 1024" xmlns="http://www.w3.org/2000/svg"><defs><style/></defs><path d="M873.972 389.437H151.695V174.784c0-9.612 7.792-17.405 17.404-17.405h687.469c9.612 0 17.404 7.793 17.404 17.405v214.653z" fill="#55C7F7"/><path d="M153.471 365.415h720.5v24.744h-720.5z" fill="#9C9AB4"/><path d="M153.471 339.649h720.5v24.743h-720.5z" fill="#3CD7FF"/><path d="M151.695 389.753h722.277V621.81H151.695z" fill="#F95F5D"/><path d="M153.471 389.991h720.5v24.744h-720.5zm0 206.838h720.5v24.744h-720.5z" fill="#FF4A40"/><path d="M366.972 389.991v231.511h-24.744v-231.51zm316.847.168v231.342h-24.743V390.159z" fill="#FF4A40"/><path d="M856.568 853.867H169.099c-9.612 0-17.404-7.792-17.404-17.404V621.81h722.277v214.653c0 9.612-7.792 17.404-17.404 17.404z" fill="#7ECF3B"/><path d="M153.471 621.5h720.5v24.744h-720.5z" fill="#A4B44D"/><path d="M153.471 645.096h720.5v24.744h-720.5z" fill="#70DD38"/><path d="M441.202 157.697h143.262v696.17H441.202z" fill="#FDAF42"/><path d="M441.202 493.41h143.262v24.743H441.202zm0-103.419h143.262v24.744H441.202zm0 206.838h143.262v24.744H441.202z" fill="#FFCF6E"/><path d="M441.202 622.428h143.262v24.744H441.202z" fill="#FDAF42"/><path d="M441.202 364.392h143.262v24.744H441.202z" fill="#FDA52A"/><path d="M391.714 414.808v182.095h242.618V414.808H391.714zm189.147 141.505c0 9.612-7.792 17.405-17.404 17.405H462.59c-9.612 0-17.405-7.793-17.405-17.405v-94.96c0-9.611 7.793-17.404 17.405-17.404h100.867c9.612 0 17.404 7.793 17.404 17.405v94.96z" fill="#FFF"/><path d="M416.458 365.415h24.744v24.744h-24.744z" fill="#C99469"/><path d="M416.458 389.991h24.744v24.744h-24.744z" fill="#FF9F75"/><path d="M391.714 365.415h24.744v24.744h-24.744z" fill="#8E82A7"/><path d="M391.714 389.991h24.744v24.744h-24.744z" fill="#FF7173"/><path d="M584.464 365.415h24.744v24.744h-24.744z" fill="#C99469"/><path d="M416.645 596.829h24.744v24.744h-24.744z" fill="#FF926E"/><path d="M416.645 621.5h24.744v24.744h-24.744z" fill="#CDA537"/><path d="M391.714 621.5h24.744v24.744h-24.744z" fill="#97A43F"/><path d="M391.714 596.829h24.744v24.744h-24.744zm217.747 24.743h-24.744v-24.744h24.744z" fill="#FF627C"/><path d="M609.46 646.244h-24.743v-24.743h24.744z" fill="#CDA537"/><path d="M634.392 646.244h-24.744v-24.743h24.744z" fill="#97A43F"/><path d="M634.392 621.572h-24.744v-24.744h24.744z" fill="#FF5762"/><path d="M584.464 389.991h24.744v24.744h-24.744z" fill="#FF9F75"/><path d="M609.648 365.415h24.744v24.744h-24.744z" fill="#8E82A7"/><path d="M609.648 389.991h24.744v24.744h-24.744z" fill="#FF7073"/></svg>