<svg height="16" width="16" class="icon" viewBox="0 0 1024 1024" xmlns="http://www.w3.org/2000/svg"><defs><style/></defs><path d="M939.4 260.6c-7.6-18.3-16.7-32.8-27.4-43.4L733.7 38.9c-10.7-10.7-25.2-19.8-43.4-27.4C672 3.8 655.2 0 640 0H146.3c-40.4 0-73.1 32.7-73.1 73.1v877.7c0 40.4 32.7 73.1 73.1 73.1h731.4c40.4 0 73.1-32.7 73.1-73.1v-640c0-15.2-3.8-31.9-11.4-50.2zM681.7 90.2l178.9 178.9c4.6 4.6 8.8 12.4 12.6 23.4H658.3V77.6c11 3.9 18.8 8.1 23.4 12.6zm196 860.6H146.3V73.1h438.9v237.7c0 15.2 5.4 28.2 16 38.8 10.7 10.7 23.6 16 38.8 16h237.7v585.2z"/></svg>