<svg height="16" width="16" class="icon" viewBox="0 0 1024 1024" xmlns="http://www.w3.org/2000/svg"><defs><style/></defs><path fill="#2c2c2c" d="M953.708 410.323a27.845 27.845 0 0 0-22.628-11.627H816.338V231.8c0-15.375-12.441-27.816-27.817-27.816H410.665l-47.049-47.402a27.778 27.778 0 0 0-19.721-8.23H93.088c-15.349 0-27.817 12.441-27.817 27.816v667.63c0 .38.19.678.217 1.059.135 3.287.678 6.545 1.928 9.615.108.217.271.406.38.652.76 1.713 1.63 3.396 2.716 4.944.652.896 1.522 1.63 2.256 2.445.434.462.814.952 1.277 1.386a28.225 28.225 0 0 0 7.606 5.134c.544.243 1.113.407 1.685.624 3.096 1.168 6.356 1.956 9.752 1.956H788.52c11.898 0 22.465-7.58 26.323-18.824l142.559-417.284a27.842 27.842 0 0 0-3.695-25.18zm-621.411-206.34l47.02 47.402a27.79 27.79 0 0 0 19.75 8.23h361.639v139.081H232.169c-11.98 0-22.6 7.66-26.376 19.016l-84.889 254.677V203.984h211.393zm436.34 611.998h-636.95L252.217 454.33H892.18L768.638 815.98z"/></svg>