<svg height="16" width="16" class="icon" viewBox="0 0 1024 1024" xmlns="http://www.w3.org/2000/svg"><defs><style/></defs><path d="M896.2 896H129.4c-35.3 0-64-28.7-64-64V192c0-35.3 28.7-64 64-64h289.8c15.7 0 31.5 5.7 44.6 16 13.1 10.3 22.4 24.4 26 39.6l15.9 65.8c.7 2.7 5.6 6.6 8.4 6.6h382c35.3 0 64 28.7 64 64v512c.1 35.3-28.6 64-63.9 64zm-734.7-64h702.8c17.7 0 32-14.3 32-32V352c0-17.7-14.3-32-32-32h-350c-15.7 0-31.5-5.7-44.6-16-13.1-10.3-22.4-24.4-26-39.6l-15.9-65.8c-.7-2.7-5.6-6.6-8.4-6.6H161.6c-17.7 0-32 14.3-32 32v576c-.1 17.7 14.2 32 31.9 32z"/></svg>