<?xml version="1.0" standalone="no"?><!DOCTYPE svg PUBLIC "-//W3C//DTD SVG 1.1//EN" "http://www.w3.org/Graphics/SVG/1.1/DTD/svg11.dtd"><svg height="20" width="20" xmlns:xlink="http://www.w3.org/1999/xlink" t="1482730636545" class="icon" style="" viewBox="0 0 1024 1024" version="1.1" xmlns="http://www.w3.org/2000/svg" p-id="35229"><defs><style type="text/css"></style></defs><path d="M679.271678 148.634202H231.092215c-14.367219 0-25.989931 11.913331-25.98993 26.643823v666.093541c0 14.702863 11.622712 26.638707 25.98993 26.638707h571.673078c14.355963 0 25.989931-11.935843 25.989931-26.638707V298.856575L679.271678 148.634202z" fill="#8183F1" p-id="35230"></path><path d="M828.755224 298.856575l-149.48457-150.222373h-19.48375v132.816958c0 20.476357 16.172331 37.035498 36.126803 37.035498h132.840494v-19.630083z" fill="#7A7CEF" p-id="35231"></path><path d="M705.261609 298.856575h123.494638l-149.484569-150.222373v123.579573c0 14.729469 11.633968 26.6428 25.989931 26.6428z" fill="#9799F7" p-id="35232"></path><path d="M498.274394 694.243671c-49.126884 0-89.095177-39.223327-89.095178-87.435375s39.968293-87.436398 89.095178-87.436398a90.834798 90.834798 0 0 1 23.940248 3.201925l-32.138977-118.887714-0.033769-0.13917c-0.893346-3.660366-8.271384-36.343743 7.569396-56.516178 5.221932-6.64842 15.172561-14.573927 32.934086-14.573927 3.838422 0 7.961322 0.372483 12.256139 1.105171 15.526625 2.65241 24.62484 8.244778 31.936363 12.739139 7.096628 4.362354 11.784394 7.243985 21.576411 7.243984 9.311063 0 22.091134-2.663666 39.071877-8.142447l1.736551-0.559749 1.89414-0.011256c4.096295 0 9.605775 2.361791 11.654434 9.018398 3.550873 11.538801-1.330298 48.314379-34.483372 70.850651-10.201339 6.933923-22.279423 10.450003-35.895535 10.450003h-0.005117c-8.589632 0-16.758686-1.428535-23.718191-3.266394 3.599991 17.108656 8.936533 42.751686 14.134929 68.771293 18.602683 93.114724 17.373693 100.114139 16.712637 103.874789l-0.067539 0.362251c0.016373 0.657986 0.023536 1.293459 0.023536 1.915629-0.002047 48.212048-39.97034 87.435375-89.098247 87.435375z" fill="#6668EE" p-id="35233"></path><path d="M638.947274 356.445178c-69.471235 22.414499-58.995649-4.765537-98.101296-11.44568-55.458079-9.471722-39.533388 55.796794-39.533388 55.796794l38.36068 141.899824c-11.976776-7.42204-26.174126-11.721973-41.398876-11.721972-42.797735 0-77.492932 33.952276-77.492932 75.833129s34.695197 75.833129 77.492932 75.833129c42.798758 0 77.493955-33.952276 77.493955-75.833129 0-1.090844-0.029676-2.174526-0.075725-3.253091 0.122797-0.277316 0.221034-0.618077 0.293689-1.030469 2.422166-13.784958-35.140335-188.851159-35.140335-188.851159s39.687908 21.231557 68.817342 1.431605c33.494858-22.76754 31.576159-59.397808 29.283954-58.658981z" fill="#FFFFFF" p-id="35234"></path></svg>