<?xml version="1.0" standalone="no"?><!DOCTYPE svg PUBLIC "-//W3C//DTD SVG 1.1//EN" "http://www.w3.org/Graphics/SVG/1.1/DTD/svg11.dtd"><svg height="20" width="20" xmlns:xlink="http://www.w3.org/1999/xlink" t="1482730775344" class="icon" style="" viewBox="0 0 1024 1024" version="1.1" xmlns="http://www.w3.org/2000/svg" p-id="35661"><defs><style type="text/css"></style></defs><path d="M679.271678 148.634202H231.092215c-14.367219 0-25.989931 11.913331-25.98993 26.643823v666.093541c0 14.702863 11.622712 26.638707 25.98993 26.638707h571.673078c14.355963 0 25.989931-11.935843 25.989931-26.638707V298.856575L679.271678 148.634202z" fill="#5EC7FB" p-id="35662"></path><path d="M828.755224 298.856575l-149.48457-150.222373h-19.48375v132.816958c0 20.476357 16.172331 37.035498 36.126803 37.035498h132.840494v-19.630083z" fill="#53C3FA" p-id="35663"></path><path d="M705.261609 298.856575h123.494638l-149.484569-150.222373v123.579573c0 14.729469 11.633968 26.6428 25.989931 26.6428z" fill="#7ED3FD" p-id="35664"></path><path d="M322.775334 669.768233l-14.623045-29.696346v-96.04138h431.888427v96.04138l-14.622022 29.696346H322.775334z m366.81434-71.246671v-4.038989h-31.284517v4.038989h31.284517z m-81.736582 0v-4.038989h-31.284517v4.038989h31.284517z m-31.20163-58.530044l2.823302-13.910825a56.999179 56.999179 0 0 0 1.1328-11.314696c0-31.160697-25.350364-56.511062-56.511061-56.511062-31.160697 0-56.511062 25.350364-56.511062 56.511062 0 3.803629 0.381693 7.610328 1.133823 11.313673l2.825349 13.911848H336.762907l-0.815575-10.723226a192.350866 192.350866 0 0 1-0.549516-14.502295c0-104.048751 84.649935-188.698686 188.698687-188.698687 104.048751 0 188.698686 84.649935 188.698686 188.698687 0 4.830005-0.185218 9.709129-0.549516 14.502295l-0.814551 10.723226h-134.77966z" fill="#44BEFA" p-id="35665"></path><path d="M457.348286 528.388249a68.438719 68.438719 0 0 1-1.365091-13.623276c0-37.617759 30.495548-68.11433 68.114331-68.11433 37.617759 0 68.11433 30.495548 68.11433 68.11433 0 4.665253-0.471744 9.221012-1.36509 13.623276h109.831454c0.341784-4.496407 0.515746-9.038864 0.515746-13.623276 0-97.80556-79.289857-177.096441-177.09644-177.09644S347.001085 416.959414 347.001085 514.764973c0 4.583388 0.173962 9.126868 0.515747 13.623276h109.831454z m-137.592728 27.245527v81.736583l10.239202 20.794605h388.203486l10.239201-20.794605v-81.736583H319.755558z m299.700803 54.491055h-54.491055v-27.245527h54.491055v27.245527z m81.736582 0h-54.491055v-27.245527h54.491055v27.245527z" fill="#FFFFFF" p-id="35666"></path></svg>