<?xml version="1.0" standalone="no"?><!DOCTYPE svg PUBLIC "-//W3C//DTD SVG 1.1//EN" "http://www.w3.org/Graphics/SVG/1.1/DTD/svg11.dtd"><svg height="16" width="16" xmlns:xlink="http://www.w3.org/1999/xlink" t="1482723346687" class="icon" style="" viewBox="0 0 1024 1024" version="1.1" xmlns="http://www.w3.org/2000/svg" p-id="25723"><defs><style type="text/css"></style></defs><path d="M679.271678 148.634202H231.092215c-14.367219 0-25.989931 11.913331-25.98993 26.643823v666.093541c0 14.702863 11.622712 26.638707 25.98993 26.638707h571.673078c14.355963 0 25.989931-11.935843 25.989931-26.638707V298.856575L679.271678 148.634202z" fill="#FF7743" p-id="25724"></path><path d="M828.755224 298.856575l-149.48457-150.222373h-19.48375v132.816958c0 20.476357 16.172331 37.035498 36.126803 37.035498h132.840494v-19.630083z" fill="#FF7039" p-id="25725"></path><path d="M705.261609 298.856575h123.494638l-149.484569-150.222373v123.579573c0 14.729469 11.633968 26.6428 25.989931 26.6428z" fill="#FFAA8B" p-id="25726"></path><path d="M329.303005 640.693034c-15.682167 0-29.693276-9.357112-35.694967-23.835871-6.002714-14.484899-2.713808-31.006178 8.377808-42.089607l72.303746-72.254628c7.293103-7.291057 16.995069-11.30651 27.316135-11.30651 10.320043 0 20.020986 4.015454 27.317159 11.308557l19.716041 19.701714 91.079368-91.016946c7.296173-7.29208 16.997116-11.308557 27.316136-11.308557 10.317996 0 20.018939 4.015454 27.316135 11.308557l143.667074 143.567813c11.092639 11.082406 14.381545 27.603685 8.377808 42.089607-6.002714 14.478759-20.012799 23.835871-35.69292 23.835871H329.303005z m71.510683-187.311083c-28.585035 0-51.840692-23.243377-51.840692-51.813063s23.255657-51.813063 51.840692-51.813062 51.840692 23.243377 51.840692 51.813062-23.255657 51.813063-51.840692 51.813063z" fill="#FF5A1B" p-id="25727"></path><path d="M729.814818 582.974471L586.148767 439.406658c-10.55745-10.550287-27.674293-10.550287-38.229696 0l-99.281167 99.213629-27.918864-27.89942a27.036773 27.036773 0 0 0-19.114336-7.91118 27.036773 27.036773 0 0 0-19.114336 7.91118l-72.303747 72.254628a27.001981 27.001981 0 0 0-5.860474 29.438472 27.03268 27.03268 0 0 0 24.975834 16.676821H710.700481a27.03268 27.03268 0 0 0 24.973788-16.676821 26.997887 26.997887 0 0 0-5.859451-29.439496zM400.812665 441.779705c22.223141 0 40.237423-18.003026 40.237423-40.210817s-18.015306-40.210817-40.237423-40.210817c-22.223141 0-40.237423 18.003026-40.237423 40.210817s18.015306 40.210817 40.237423 40.210817z" fill="#FFFFFF" p-id="25728"></path></svg>