<?xml version="1.0" standalone="no"?><!DOCTYPE svg PUBLIC "-//W3C//DTD SVG 1.1//EN" "http://www.w3.org/Graphics/SVG/1.1/DTD/svg11.dtd"><svg height="20" width="20" xmlns:xlink="http://www.w3.org/1999/xlink" t="1482730839495" class="icon" style="" viewBox="0 0 1024 1024" version="1.1" xmlns="http://www.w3.org/2000/svg" p-id="36173"><defs><style type="text/css"></style></defs><path d="M679.271678 148.634202H231.092215c-14.367219 0-25.989931 11.913331-25.98993 26.643823v666.093541c0 14.702863 11.622712 26.638707 25.98993 26.638707h571.673078c14.355963 0 25.989931-11.935843 25.989931-26.638707V298.856575L679.271678 148.634202z" fill="#FF9743" p-id="36174"></path><path d="M828.755224 298.856575l-149.48457-150.222373h-19.48375v132.816958c0 20.476357 16.172331 37.035498 36.126803 37.035498h132.840494v-19.630083z" fill="#FF923B" p-id="36175"></path><path d="M705.261609 298.856575h123.494638l-149.484569-150.222373v123.579573c0 14.729469 11.633968 26.6428 25.989931 26.6428z" fill="#FFBF8C" p-id="36176"></path><path d="M443.715801 683.448814c-6.764054 0-12.331863-0.26913-17.019629-0.820692-5.03876-0.591471-9.066493-1.407046-12.311397-2.49175-4.731768-1.575892-8.366551-4.02057-10.791787-7.260358a18.845207 18.845207 0 0 1-3.792373-11.391445v-287.10902c0-10.979052 3.234671-19.646456 9.614985-25.764803 6.246261-5.988388 14.300704-9.024537 23.940249-9.024537h75.231425c7.833409 0 15.421224 0.303922 22.554692 0.903579 7.227612 0.61296 15.912411 1.917676 25.823132 3.880377 10.5728 2.097778 21.367657 5.991458 32.086789 11.573593 11.006681 5.737678 20.550035 13.127995 28.369118 21.967314 7.882528 8.91709 13.957897 19.435655 18.057261 31.267121 4.02671 11.628852 6.067182 24.731264 6.067182 38.948057 0 19.332301-3.106758 36.81344-9.233292 51.956326-6.246261 15.431457-15.494902 28.633131-27.487027 39.241746-11.858072 10.489912-26.499537 18.548448-43.518143 23.950482-16.603143 5.270027-36.248575 7.943926-58.392922 7.943926h-15.036461v90.266863c0 4.307096-1.452071 8.372691-4.198625 11.754718-2.484587 3.054569-6.064113 5.375427-10.644431 6.900154-3.221368 1.077541-7.199982 1.89107-12.150738 2.484587-4.613064 0.553609-10.228969 0.823761-17.168008 0.823762z m61.664431-185.506995c8.832156 0 16.137539-1.130753 21.712511-3.362584 5.338588-2.134617 9.512654-4.957919 12.763698-8.633634 3.414773-3.855818 5.958712-8.417717 7.783267-13.950734 1.90335-5.780657 2.869351-12.236696 2.869351-19.182898 0-9.165754-1.514493-16.590863-4.502547-22.069644-2.925632-5.363148-6.40385-9.279341-10.33744-11.640108-4.455475-2.671852-8.971325-4.307096-13.80133-4.998851-5.773494-0.821715-11.82021-1.239224-17.967211-1.239224h-16.022928v85.077677h17.502629z" fill="#FF8522" p-id="36177"></path><path d="M629.943203 448.12625c0 17.925255-2.797719 33.792641-8.385995 47.605228-5.592368 13.81361-13.731746 25.448602-24.419156 34.901905-10.69048 9.457396-23.802102 16.649192-39.341006 21.582551-15.539928 4.933359-33.834596 7.399527-54.881958 7.399527h-26.639731v101.870132c0 1.645476-0.535189 3.1262-1.602497 4.440125-1.071402 1.318018-2.836605 2.385327-5.303796 3.207042-2.466168 0.824785-5.757121 1.479701-9.866719 1.972934-4.112668 0.493234-9.373485 0.740874-15.786544 0.740874-6.251378 0-11.469216-0.246617-15.662725-0.740874-4.193509-0.49221-7.523347-1.14815-9.989515-1.972934-2.467191-0.821715-4.193509-1.889023-5.179976-3.207042a7.209192 7.209192 0 0 1-1.479701-4.440125V374.375549c0-7.728008 2.01182-13.524015 6.042623-17.390065 4.027733-3.861958 9.330506-5.79703 15.909342-5.79703h75.231425c7.562233 0 14.757099 0.289596 21.582551 0.863671 6.822382 0.578168 15.003715 1.811252 24.541952 3.700275 9.535167 1.892093 19.197224 5.387707 28.982079 10.482749 9.782807 5.099135 18.129916 11.555174 25.036209 19.362999 6.906294 7.81192 12.168134 16.938788 15.786545 27.378558 3.615341 10.444886 5.426593 22.161742 5.426593 35.149544z m-67.830875 4.686743c0-11.180644-1.972934-20.388353-5.919827-27.626198-3.945869-7.233752-8.798387-12.579503-14.552437-16.033161-5.758144-3.453658-11.800767-5.630231-18.129916-6.535857-6.332219-0.901533-12.868075-1.356904-19.609617-1.356904h-27.626197v108.283192h29.105898c10.359952 0 19.032472-1.394766 26.0237-4.193509 6.987135-2.793626 12.7023-6.698562 17.142426-11.716856 4.440126-5.0142 7.807826-11.014868 10.113335-18.006096 2.300392-6.986111 3.452635-14.5903 3.452635-22.814611z" fill="#FFFFFF" p-id="36178"></path></svg>