<?xml version="1.0" standalone="no"?><!DOCTYPE svg PUBLIC "-//W3C//DTD SVG 1.1//EN" "http://www.w3.org/Graphics/SVG/1.1/DTD/svg11.dtd"><svg height="20" width="20" xmlns:xlink="http://www.w3.org/1999/xlink" t="1482730813843" class="icon" style="" viewBox="0 0 1024 1024" version="1.1" xmlns="http://www.w3.org/2000/svg" p-id="35917"><defs><style type="text/css"></style></defs><path d="M679.271678 148.634202H231.092215c-14.367219 0-25.989931 11.913331-25.98993 26.643823v666.093541c0 14.702863 11.622712 26.638707 25.98993 26.638707h571.673078c14.355963 0 25.989931-11.935843 25.989931-26.638707V298.856575L679.271678 148.634202z" fill="#3E9AE8" p-id="35918"></path><path d="M828.755224 298.856575l-149.48457-150.222373h-19.48375v132.816958c0 20.476357 16.172331 37.035498 36.126803 37.035498h132.840494v-19.630083z" fill="#3F8EFF" p-id="35919"></path><path d="M705.261609 298.856575h123.494638l-149.484569-150.222373v123.579573c0 14.729469 11.633968 26.6428 25.989931 26.6428z" fill="#77B3FF" p-id="35920"></path><path d="M598.648452 648.322805c-8.303106 0-15.254425-0.220011-20.659528-0.654916-6.136767-0.49528-10.978029-1.375324-14.801101-2.686179-5.077645-1.740644-9.033747-4.439102-11.757789-8.01965-2.245134-2.942005-3.913123-6.520507-4.953825-10.632152l-25.816992-93.286639-23.717168 93.146446c-1.006933 4.237511-2.533706 7.763824-4.65809 10.736529-2.681062 3.75451-6.737448 6.557346-12.059663 8.333806-3.939729 1.311879-8.847505 2.143826-15.006785 2.543939-5.344728 0.342808-12.235672 0.517793-20.484544 0.517793-8.473999 0-15.47239-0.221034-20.798698-0.655939-6.046716-0.496304-10.841929-1.375324-14.661932-2.685156-5.076622-1.739621-9.032724-4.438079-11.757788-8.018627-2.234901-2.926656-3.895727-6.482645-4.936429-10.561544l-58.117652-198.729133c-1.647523-5.311982-2.696412-9.520841-3.194762-12.821004-0.50142-3.303232-0.74599-6.087649-0.74599-8.510837 0-4.104481 1.24741-7.973602 3.608177-11.18576 2.423189-3.313465 5.972015-5.66093 10.847046-7.172353 3.208065-0.9967 7.167237-1.679245 12.105712-2.085498 4.344958-0.353041 9.767458-0.532119 16.121166-0.53212 6.836709 0 12.540617 0.178055 16.953114 0.530073 5.183046 0.418532 9.301853 1.191128 12.591783 2.362814 4.752234 1.703805 8.332782 4.374634 10.648524 7.940856 1.591241 2.469238 2.800789 5.316076 3.598968 8.468882l32.574906 120.543424 30.535457-120.487142c0.87288-3.488451 2.346441-6.606465 4.377704-9.259898 2.379187-3.109828 5.692652-5.499248 9.846252-7.101745 3.190669-1.226944 7.175423-2.031263 12.186554-2.461051 4.194532-0.356111 9.54847-0.535189 15.915481-0.535189 6.439666 0 11.836583 0.230244 16.043395 0.682545 4.665253 0.509606 8.402367 1.24741 11.428283 2.255367 4.532223 1.511423 8.021697 3.900843 10.371209 7.102768 1.689479 2.309602 2.987031 4.947685 3.855817 7.845689l0.076748 0.266059 33.096793 122.715903 31.442106-121.142058c0.652869-3.462868 1.941212-6.577812 3.833305-9.259898 2.39556-3.385097 5.929036-5.930059 10.506285-7.568372 3.28072-1.171686 7.30743-1.944282 12.310373-2.364861 4.27435-0.354064 9.662057-0.533143 16.018836-0.533142 6.361895 0 11.711739 0.180102 15.902178 0.534165 4.846378 0.416486 8.711406 1.122567 11.816117 2.158153 4.704139 1.567705 8.249895 4.095271 10.536983 7.513114 2.12029 3.188622 3.193739 6.809079 3.193739 10.770298 0 2.558265-0.308015 5.436826-0.940418 8.80248-0.544399 2.911306-1.49505 6.900154-2.904143 12.190647l-58.788941 199.349257c-1.236154 4.198625-2.905166 7.642051-5.100159 10.527774-2.688225 3.521197-6.492878 6.195096-11.308556 7.948019-3.781116 1.3743-8.622378 2.238994-14.798031 2.64627-5.26491 0.342808-12.119015 0.517793-20.374027 0.517793z" fill="#1E7BFF" p-id="35921"></path><path d="M701.258435 406.340565c0 1.811252-0.246617 4.030803-0.740874 6.659677-0.49221 2.632967-1.39886 6.41306-2.712785 11.346419l-58.70503 199.053522c-0.824785 2.797719-1.892093 5.056156-3.206018 6.783496-1.318018 1.727341-3.329838 3.083222-6.042623 4.070713-2.713808 0.986467-6.579859 1.641383-11.593036 1.972934-5.018294 0.327458-11.555174 0.493234-19.609617 0.493233-8.058536 0-14.638395-0.207731-19.732413-0.617053-5.098111-0.412392-9.087982-1.110287-11.96245-2.096755-2.87856-0.986467-4.975315-2.343371-6.289239-4.070712-1.318018-1.727341-2.304486-3.903913-2.960425-6.53688l-36.998659-133.688815-0.493234-2.219551-0.49221 2.219551-34.039257 133.688815c-0.659009 2.797719-1.602498 5.056156-2.836605 6.783497-1.233084 1.727341-3.329838 3.083222-6.28924 4.070712-2.960425 0.986467-6.991228 1.641383-12.08627 1.972935-5.098111 0.327458-11.67797 0.493234-19.732413 0.493233-8.224312 0-14.842033-0.207731-19.856234-0.617053-5.018294-0.412392-8.964162-1.110287-11.839652-2.096755-2.87856-0.986467-4.975315-2.343371-6.28924-4.070712-1.318018-1.727341-2.304486-3.903913-2.960425-6.53688l-58.211796-199.053522c-1.479701-4.767584-2.428306-8.509814-2.836605-11.222599-0.412392-2.712785-0.617054-4.971222-0.617054-6.782473 0-1.641383 0.450255-3.083222 1.356904-4.316306 0.901533-1.233084 2.547009-2.219551 4.933359-2.960425 2.382257-0.73985 5.588275-1.27197 9.619079-1.60352 4.027733-0.327458 9.083889-0.493234 15.169491-0.493234 6.574742 0 11.920494 0.165776 16.032138 0.493234 4.108574 0.331551 7.314593 0.905626 9.620102 1.72734 2.301416 0.824785 3.903913 1.935072 4.809539 3.329839 0.901533 1.39886 1.603521 3.083222 2.096754 5.056156L449.419709 569.135278l0.493234 2.960425 0.493234-2.960425 40.945551-161.561629c0.493234-1.972934 1.27197-3.657296 2.343371-5.056156 1.067308-1.394766 2.670829-2.505054 4.809539-3.329838 2.134617-0.820692 5.13802-1.394766 9.003048-1.727341 3.860934-0.327458 8.837272-0.493234 14.922874-0.493234 6.081509 0 11.014868 0.208754 14.799054 0.617054 3.781116 0.412392 6.783497 0.986467 9.003048 1.727341 2.220574 0.73985 3.781116 1.726318 4.686743 2.960425 0.902556 1.233084 1.603521 2.674922 2.096754 4.316305l43.904952 162.794713 0.740874 2.713808 0.49221-2.960424 41.933042-161.56163c0.327458-1.972934 0.986467-3.657296 1.972934-5.056156 0.98749-1.394766 2.628874-2.505054 4.933359-3.329838 2.300392-0.820692 5.426593-1.394766 9.372462-1.727341 3.946892-0.327458 8.961092-0.493234 15.046694-0.493233 6.081509 0 11.056823 0.165776 14.922874 0.493233 3.860934 0.331551 6.906294 0.86367 9.125845 1.603521 2.220574 0.73985 3.738138 1.727341 4.563946 2.960425 0.820692 1.232061 1.233084 2.672876 1.233084 4.315282z" fill="#FFFFFF" p-id="35922"></path></svg>