<?xml version="1.0" standalone="no"?><!DOCTYPE svg PUBLIC "-//W3C//DTD SVG 1.1//EN" "http://www.w3.org/Graphics/SVG/1.1/DTD/svg11.dtd"><svg height="20" width="20" xmlns:xlink="http://www.w3.org/1999/xlink" t="1482730848757" class="icon" style="" viewBox="0 0 1024 1024" version="1.1" xmlns="http://www.w3.org/2000/svg" p-id="36301"><defs><style type="text/css"></style></defs><path d="M679.271678 148.634202H231.092215c-14.367219 0-25.989931 11.913331-25.98993 26.643823v666.093541c0 14.702863 11.622712 26.638707 25.98993 26.638707h571.673078c14.355963 0 25.989931-11.935843 25.989931-26.638707V298.856575L679.271678 148.634202z" fill="#63C422" p-id="36302"></path><path d="M828.755224 298.856575l-149.48457-150.222373h-19.48375v132.816958c0 20.476357 16.172331 37.035498 36.126803 37.035498h132.840494v-19.630083z" fill="#58C013" p-id="36303"></path><path d="M705.261609 298.856575h123.494638l-149.484569-150.222373v123.579573c0 14.729469 11.633968 26.6428 25.989931 26.6428z" fill="#ACE189" p-id="36304"></path><path d="M610.704023 683.448814c-8.070816 0-14.320147-0.171915-19.107174-0.52598-5.311982-0.396019-9.517771-1.060145-12.862959-2.031262-4.715395-1.36816-8.439206-3.590781-11.06501-6.603395-1.851161-2.113127-3.439332-4.673439-4.710278-7.596002l-49.417503-94.972025-49.374524 95.28004c-1.409093 2.804882-3.025916 5.259794-4.804423 7.296173-2.632967 3.010567-6.349615 5.227048-11.051706 6.593162-3.362584 0.975211-7.611352 1.639337-12.998036 2.033309-4.807493 0.347924-11.106965 0.524956-18.729573 0.524956-9.04091 0-15.933901-0.264013-21.071921-0.804318-7.699356-0.809435-13.221116-3.165086-16.878413-7.199983-2.52859-2.778276-6.378268-8.951883-3.545756-18.870789 1.233084-4.313236 3.563152-9.599635 7.126305-16.162098l73.443709-133.858684-68.112284-125.582183-0.085958-0.172939c-3.291976-6.583952-5.507434-11.824303-6.773264-16.020882-3.363607-11.090593 2.041496-17.552771 4.520967-19.815301 3.921309-3.585665 9.44307-5.558599 17.367553-6.200213 5.4225-0.433882 13.036921-0.653893 22.641673-0.653892 7.950066 0 14.415314 0.176009 19.21462 0.523933 5.370311 0.393973 9.629311 1.048889 13.030782 2.00568 4.959965 1.396813 8.795317 3.723811 11.401677 6.919596 1.597381 1.971911 3.069919 4.297886 4.402263 6.944156l45.543266 85.869716 44.307112-85.808318c1.370207-2.730181 2.818185-5.018294 4.424776-6.993274 2.527566-3.111874 6.14393-5.41636 10.742668-6.843872 3.218298-0.99977 7.272637-1.683339 12.390192-2.087545 4.562922-0.357134 10.546194-0.530073 18.302855-0.530072 8.477069 0 15.366989 0.221034 20.475333 0.659009 7.65433 0.662079 13.236466 2.846838 17.074887 6.67912 2.7793 2.784416 7.021927 8.937556 4.385891 19.034518-1.099031 4.193509-3.15383 9.449209-6.284124 16.081257l-0.145309 0.305969-68.182892 125.002992 72.840982 134.772496c3.377934 6.569626 5.568832 11.860119 6.700609 16.174378 1.986237 7.605212 0.167822 14.669094-4.989641 19.392675-3.962242 3.638877-9.516748 5.691629-17.467837 6.447853-5.593392 0.532119-13.013385 0.792039-22.679535 0.792039z" fill="#49BA00" p-id="36305"></path><path d="M638.82243 645.946688c2.960425 5.758144 4.89038 10.359952 5.796007 13.812587 0.902556 3.453658 0.370437 6.085602-1.602498 7.893784-1.972934 1.812275-5.54939 2.960425-10.729365 3.452635-5.179976 0.493234-12.375865 0.740874-21.582551 0.740874-7.732102 0-13.812587-0.165776-18.252713-0.493234-4.440126-0.330528-7.93574-0.86367-10.482749-1.602497-2.551102-0.740874-4.402263-1.765203-5.550413-3.083222-1.152243-1.314948-2.13871-2.960425-2.960424-4.933359l-59.937091-115.189485-59.69252 115.189485c-0.986467 1.973958-2.057869 3.618411-3.206019 4.933359-1.152243 1.318018-3.00238 2.342348-5.550413 3.083222-2.551102 0.73985-6.085602 1.27197-10.606568 1.602497-4.524037 0.327458-10.482749 0.493234-17.882276 0.493234-8.55177 0-15.169491-0.246617-19.856234-0.740874-4.686742-0.49221-7.854898-1.641383-9.496281-3.452635-1.645476-1.808182-1.972934-4.440126-0.986467-7.893784 0.986467-3.452635 3.041266-8.054443 6.166443-13.812587l76.464509-139.362024-71.037916-130.976031c-2.960425-5.919826-4.975315-10.644431-6.042624-14.183024-1.071402-3.5345-0.659009-6.166443 1.233084-7.89276 1.888-1.727341 5.383614-2.793626 10.482749-3.207042 5.095042-0.408299 12.332886-0.617054 21.705348-0.617054 7.728008 0 13.851473 0.165776 18.376533 0.493234 4.519943 0.331551 8.097422 0.862647 10.729365 1.602498 2.628874 0.73985 4.477988 1.769296 5.550413 3.083221 1.067308 1.318018 2.096754 2.960425 3.083222 4.933359l55.992245 105.570408 54.511521-105.570408c0.986467-1.972934 2.01182-3.615341 3.084245-4.933359 1.067308-1.313925 2.793626-2.343371 5.179976-3.083221 2.381234-0.73985 5.67321-1.27197 9.866718-1.602498 4.193509-0.327458 9.989515-0.493234 17.389042-0.493234 8.220219 0 14.715143 0.208754 19.485797 0.617054 4.767584 0.412392 8.055466 1.52268 9.866718 3.329838 1.808182 1.811252 2.258437 4.439102 1.356904 7.892761-0.905626 3.453658-2.755764 8.139378-5.550412 14.059204l-71.037917 130.23618 75.722612 140.102898z" fill="#FFFFFF" p-id="36306"></path></svg>