<?xml version="1.0" standalone="no"?><!DOCTYPE svg PUBLIC "-//W3C//DTD SVG 1.1//EN" "http://www.w3.org/Graphics/SVG/1.1/DTD/svg11.dtd"><svg height="16" width="16" xmlns:xlink="http://www.w3.org/1999/xlink" t="1482671612160" class="icon" style="" viewBox="0 0 1024 1024" version="1.1" xmlns="http://www.w3.org/2000/svg" p-id="9475"><defs><style type="text/css"></style></defs><path d="M896.2 896 129.4 896c-35.3 0-64-28.7-64-64L65.4 192c0-35.3 28.7-64 64-64l289.8 0c15.7 0 31.5 5.7 44.6 16 13.1 10.3 22.4 24.4 26 39.6l15.9 65.8c0.7 2.7 5.6 6.6 8.4 6.6l382 0c35.3 0 64 28.7 64 64l0 512C960.2 867.3 931.5 896 896.2 896zM161.5 832c0 0 561.4 0 702.8 0 17.7 0 32-14.3 32-32 0 0 0-340.6 0-448 0-17.7-14.3-32-32-32l-350 0c-15.7 0-31.5-5.7-44.6-16-13.1-10.3-22.4-24.4-26-39.6l-15.9-65.8c-0.7-2.7-5.6-6.6-8.4-6.6 0 0-182.4 0-257.8 0-17.7 0-32 14.3-32 32 0 0 0 450.7 0 576C129.5 817.7 143.8 832 161.5 832z" p-id="9476"></path></svg>