<?xml version="1.0" standalone="no"?><!DOCTYPE svg PUBLIC "-//W3C//DTD SVG 1.1//EN" "http://www.w3.org/Graphics/SVG/1.1/DTD/svg11.dtd"><svg height="16" width="16" xmlns:xlink="http://www.w3.org/1999/xlink" t="1482671573428" class="icon" style="" viewBox="0 0 1024 1024" version="1.1" xmlns="http://www.w3.org/2000/svg" p-id="9307"><defs><style type="text/css"></style></defs><path fill="#2c2c2c" d="M953.707562 410.323273c-5.215792-7.2798-13.636578-11.626805-22.627347-11.626805L816.337915 398.696468 816.337915 231.79932c0-15.375176-12.441357-27.816532-27.816532-27.816532L410.664545 203.982788l-47.048549-47.40159c-5.215792-5.269004-12.332886-8.230452-19.721157-8.230452L93.087607 148.350746c-15.34857 0-27.816532 12.441357-27.816532 27.816532l0 667.629523c0 0.379647 0.190335 0.678452 0.216941 1.059122 0.135076 3.28686 0.678452 6.545066 1.927909 9.614985 0.10847 0.216941 0.271176 0.406253 0.38067 0.651846 0.760317 1.713015 1.630127 3.396353 2.715855 4.944616 0.651846 0.895393 1.521656 1.630127 2.255367 2.444679 0.433882 0.461511 0.814552 0.951675 1.277086 1.385557 2.255367 2.118244 4.807493 3.856841 7.606235 5.133927 0.543376 0.243547 1.113357 0.407276 1.684362 0.624217 3.096525 1.168616 6.356778 1.956561 9.752108 1.956561l695.433776 0c11.897981 0 22.464641-7.579629 26.322505-18.824741l142.558833-417.283802C960.307887 427.002141 958.923354 417.630702 953.707562 410.323273zM332.296687 203.983811l47.02092 47.40159c5.215792 5.270027 12.332886 8.230452 19.748786 8.230452l361.63948 0 0 139.080615L232.169245 398.696468c-11.979846 0-22.600741 7.66047-26.376741 19.015076l-84.888366 254.677377L120.904139 203.983811 332.296687 203.983811zM768.63752 815.981293 131.68774 815.981293l120.528074-361.65176 639.96444 0L768.63752 815.981293z" p-id="9308"></path></svg>