<svg height="16" width="16" class="icon" viewBox="0 0 1024 1024" xmlns="http://www.w3.org/2000/svg"><defs><style/></defs><path d="M895.394 845.079H129.607c-19.224 0-34.809-15.584-34.809-34.809V255.865h800.596c19.224 0 34.809 15.584 34.809 34.81V810.27c0 19.224-15.584 34.808-34.81 34.808z" fill="#EFB900"/><path d="M94.798 433.132h835.405V568.2H94.798z" fill="#DDA300"/><path d="M150.712 299.597h730.603V658.76H150.712z" fill="#FFF"/><path d="M895.394 845.079H129.607c-19.224 0-34.809-15.584-34.809-34.809V479.178h800.596c19.224 0 34.809 15.584 34.809 34.81V810.27c0 19.224-15.584 34.808-34.81 34.808z" fill="#FFD02F"/><path d="M491.957 255.865H94.798v-45.248c0-33.642 27.272-60.915 60.915-60.915h246.321c49.663 0 89.923 40.26 89.923 89.922v16.241z" fill="#EFB900"/><path d="M150.712 433.132h730.603v46.046H150.712z" fill="#EFEFEF"/></svg>