<?xml version="1.0" standalone="no"?><!DOCTYPE svg PUBLIC "-//W3C//DTD SVG 1.1//EN" "http://www.w3.org/Graphics/SVG/1.1/DTD/svg11.dtd"><svg height="20" width="20" xmlns:xlink="http://www.w3.org/1999/xlink" t="1482731665057" class="icon" style="" viewBox="0 0 1024 1024" version="1.1" xmlns="http://www.w3.org/2000/svg" p-id="45782"><defs><style type="text/css"></style></defs><path d="M679.271678 148.634202H231.092215c-14.367219 0-25.989931 11.913331-25.98993 26.643823v666.093541c0 14.702863 11.622712 26.638707 25.98993 26.638707h571.673078c14.355963 0 25.989931-11.935843 25.989931-26.638707V298.856575L679.271678 148.634202z" fill="#9876de" p-id="45783"></path><path d="M828.755224 298.856575l-149.48457-150.222373h-19.48375v132.816958c0 20.476357 16.172331 37.035498 36.126803 37.035498h132.840494v-19.630083z" fill="#9876de" p-id="45784"></path><path d="M705.261609 298.856575h123.494638l-149.484569-150.222373v123.579573c0 14.729469 11.633968 26.6428 25.989931 26.6428z" fill="#9876de" p-id="45785"></path><path d="M440.691931 677.94752c-66.208934 0-120.072703-49.733705-120.072703-110.863971 0-29.095665 12.106736-56.580646 34.091446-77.394694 19.21769-18.194384 44.198641-29.580712 71.216995-32.632211 3.182482-26.210965 14.4542-50.41932 32.318056-69.029167 20.4958-21.351284 47.514153-33.109072 76.076676-33.109072 60.283991 0 109.330034 52.716642 109.330035 117.513414l-0.002047 0.557702c42.584887 14.575973 69.590961 52.573379 69.590961 99.210559 0 58.30901-55.472406 105.747439-123.656321 105.74744H440.691931z" fill="#9876de" p-id="45786"></path><path d="M631.68487 481.539244c0.236384-3.00238 0.363274-6.03853 0.363273-9.107425 0-58.493206-43.753503-105.911168-97.725742-105.911168-52.570309 0-95.437629 44.98761-97.630574 101.375875-58.052161 1.926886-104.46933 45.592384-104.46933 99.186 0 54.82056 48.564066 99.260701 108.470457 99.260701h148.892075c61.885466 0 112.053052-42.149982 112.053052-94.14417-0.001023-43.174312-25.77606-79.557964-69.953211-90.659813z" fill="#9876de" p-id="45787"></path></svg>