<?xml version="1.0" standalone="no"?><!DOCTYPE svg PUBLIC "-//W3C//DTD SVG 1.1//EN" "http://www.w3.org/Graphics/SVG/1.1/DTD/svg11.dtd"><svg height="20" width="20" xmlns:xlink="http://www.w3.org/1999/xlink" t="1482822631732" class="icon" style="" viewBox="0 0 1024 1024" version="1.1" xmlns="http://www.w3.org/2000/svg" p-id="2018"><defs><style type="text/css"></style></defs><path d="M531.500635 654.594649 531.500635 305.949111l-40.652885 0 0 348.648608L366.346177 529.541515l-28.903284 29.040407 173.430958 174.226067 0.288572-0.289596 0.287549 0.289596 173.451424-174.226067-28.922726-29.040407L531.500635 654.594649zM511.17368 63.053058c-246.975974 0-447.184809 200.208834-447.184809 447.184809 0 246.956531 200.208834 447.184809 447.184809 447.184809 246.975974 0 447.184809-200.228277 447.184809-447.184809C958.358489 263.261892 758.149655 63.053058 511.17368 63.053058zM511.17368 916.76979c-224.524636 0-406.531923-182.006264-406.531923-406.5309 0-224.52566 182.007287-406.5309 406.531923-406.5309s406.5309 182.00524 406.5309 406.5309C917.705604 734.763526 735.698317 916.76979 511.17368 916.76979z" p-id="2019"></path></svg>