<?xml version="1.0" standalone="no"?><!DOCTYPE svg PUBLIC "-//W3C//DTD SVG 1.1//EN" "http://www.w3.org/Graphics/SVG/1.1/DTD/svg11.dtd"><svg height="20" width="20" xmlns:xlink="http://www.w3.org/1999/xlink" t="1482730797754" class="icon" style="" viewBox="0 0 1024 1024" version="1.1" xmlns="http://www.w3.org/2000/svg" p-id="35789"><defs><style type="text/css"></style></defs><path d="M679.271678 148.634202H231.092215c-14.367219 0-25.989931 11.913331-25.98993 26.643823v666.093541c0 14.702863 11.622712 26.638707 25.98993 26.638707h571.673078c14.355963 0 25.989931-11.935843 25.989931-26.638707V298.856575L679.271678 148.634202z" fill="#FF5A5A" p-id="35790"></path><path d="M828.755224 298.856575l-149.48457-150.222373h-19.48375v132.816958c0 20.476357 16.172331 37.035498 36.126803 37.035498h132.840494v-19.630083z" fill="#FF5050" p-id="35791"></path><path d="M705.261609 298.856575h123.494638l-149.484569-150.222373v123.579573c0 14.729469 11.633968 26.6428 25.989931 26.6428z" fill="#FFA3A3" p-id="35792"></path><path d="M699.92302 626.477264c-5.54325 1.592264-11.899004 2.393513-19.040658 2.393514-25.314549 0-65.150836-7.291057-98.379635-23.532973-54.862515 6.16235-93.325525 13.364379-124.332726 23.264866-0.567935 0.222057-1.169639 0.447185-1.806136 0.684592l-0.389879 0.14531c-41.655725 70.592778-72.42245 100.776218-102.585423 100.776217-6.995321 0-13.851473-1.750877-19.306718-4.928242l-0.202615-0.11768-17.636682-11.390422-2.639107-4.393053-0.316202-0.812505c-3.084245-7.928576-3.746324-15.297404-2.084474-23.189142 3.916193-18.877953 22.991644-48.37987 64.749699-74.568323 5.830799-4.242627 14.279215-8.969279 27.084869-15.142885 8.05035-14.113439 17.3389-31.601742 29.047569-54.68139 15.520485-31.346939 25.53456-62.778812 33.247219-89.693812-11.493775-37.634132-18.749016-63.352887-6.363941-108.016109 3.873214-15.98302 18.09717-32.43983 35.32453-32.439829h7.719822c10.406001 0 19.944238 3.804652 26.857694 10.714015 24.284079 24.284079 15.957437 74.676793 3.342118 125.515669l-0.097214 0.388856-0.12689 0.38067c-0.096191 0.289596-0.185218 0.576121-0.267083 0.858554 12.136412 33.115212 28.801976 59.579957 47.12632 74.765821 8.099469 6.220678 15.921621 11.520381 23.816429 16.134469 12.900821-1.318018 25.789363-1.959631 39.288818-1.959632 44.589544 0 70.66441 8.596795 82.056877 27.055193 4.611018 7.380084 6.466272 15.688307 5.351892 24.019043-0.546446 10.657734-4.631484 20.11206-11.83556 27.382651a32.458249 32.458249 0 0 1-1.977027 1.977027c0.002047-0.001023-11.04352 6.40078-15.625886 8.40953zM503.505535 512.512676c-6.725168 17.743106-15.063067 36.19127-25.212218 55.813167a661.582807 661.582807 0 0 1-4.453428 8.273431l-1.38658 2.549055c21.790282-7.483438 44.600801-13.837146 68.173682-18.989493-13.81361-12.546757-26.240641-28.504194-37.121456-47.64616z" fill="#FD4848" p-id="35793"></path><path d="M715.303312 570.063417c-9.330506-15.117302-33.456996-22.196535-73.348541-22.196535-13.189394 0-27.024493 0.644683-41.500183 2.253321-10.29446-5.79089-19.621896-12.226462-27.986401-18.658966-20.266579-16.730033-38.60525-46.004777-51.473326-82.356706 0.321318-0.966001 0.644683-2.574638 1.28732-4.50357 10.617825-42.787502 20.590967-94.579075-0.642637-115.812679-5.148253-5.145184-12.226462-7.719822-19.624966-7.719822h-7.719822c-11.905144 0-22.5199 12.546757-25.415856 24.770149-11.901051 42.787502-4.824889 66.271356 7.078209 105.197924v0.321318c-8.04421 28.307719-18.337647 61.121056-34.744315 94.257758-10.936073 21.554922-21.230534 41.176818-30.882358 57.906851-12.868075 6.112208-22.5199 11.260461-28.632107 15.764032-38.60525 24.127514-56.942897 51.148937-60.480467 68.199265-1.287319 6.112208-0.644683 11.580756 1.607614 17.371646l0.966001 1.607614 15.442714 9.973142c3.860934 2.25025 9.007141 3.53757 14.155395 3.537569 26.057469 0 55.653531-30.562063 95.545076-98.761327 2.25332-0.966001 4.183276-1.610684 5.79089-2.253321 33.134655-10.617825 74.313519-18.016329 129.645732-24.128536 32.171724 16.405645 72.061222 23.805172 96.511078 23.805172 14.155395 0 23.805172-3.540639 29.274743-9.652848v0.005117c5.79089-5.79089 8.685823-13.189394 9.007142-21.233604 0.962931-6.433526-0.644683-12.544711-3.860935-17.692964z m-313.336358 63.051011c-20.912285 38.281885-39.892569 59.514465-54.368258 64.339354 1.608637-12.226462 16.08535-33.459043 38.926568-54.368258 3.218298-2.574638 8.685823-6.112208 15.442714-9.973142v0.002046h-0.001024zM496.870418 344.870562c0.644683-1.287319 1.610684-2.894933 2.25332-3.861958l4.824889 1.607614c5.469572 7.720845 6.112208 17.048281 2.894933 35.385929l-0.966001 5.148253c-1.932002 7.078209-2.894933 16.08535-5.148253 26.378787l-1.605568 1.286296 0.001023 0.004093-0.00307-0.002046 0.002047-0.001024c-7.401574-28.951379-7.722892-52.436256-2.25332-65.945944z m-40.212864 250.922866l-3.537569 1.287319c2.573615-9.651824 9.650801-21.23258 16.084326-33.456996 14.476713-27.986401 25.092491-53.402257 32.490996-77.207429l0.001023-0.00307c13.18837 28.953426 29.919427 52.759621 49.220005 69.166289 3.860934 3.536546 8.364505 7.077186 13.189393 10.29446-27.987425 5.149277-66.592674 14.155395-107.448174 29.919427z m240.311181-1.928932h-1.287319c-1.928932 0.321318-3.858888 0.642636-6.112208 0.642636-14.798031 0-37.639249-6.112208-61.123102-16.405645 2.894933-3.216251 5.145184-3.216251 7.398503-3.216251 45.038776 0 57.906851 8.043187 61.123103 11.259438 1.608637 1.284249 2.25332 2.570545 2.895956 3.537569-0.321318 3.216251-1.287319 3.540639-2.894933 4.182253z" fill="#FFFFFF" p-id="35794"></path></svg>