<?xml version="1.0" standalone="no"?><!DOCTYPE svg PUBLIC "-//W3C//DTD SVG 1.1//EN" "http://www.w3.org/Graphics/SVG/1.1/DTD/svg11.dtd"><svg height="20" width="20" xmlns:xlink="http://www.w3.org/1999/xlink" t="1482730828803" class="icon" style="" viewBox="0 0 1024 1024" version="1.1" xmlns="http://www.w3.org/2000/svg" p-id="36045"><defs><style type="text/css"></style></defs><path d="M679.271678 148.634202H231.092215c-14.367219 0-25.989931 11.913331-25.98993 26.643823v666.093541c0 14.702863 11.622712 26.638707 25.98993 26.638707h571.673078c14.355963 0 25.989931-11.935843 25.989931-26.638707V298.856575L679.271678 148.634202z" fill="#4D97FF" p-id="36046"></path><path d="M828.755224 298.856575l-149.48457-150.222373h-19.48375v132.816958c0 20.476357 16.172331 37.035498 36.126803 37.035498h132.840494v-19.630083z" fill="#3F8EFF" p-id="36047"></path><path d="M705.261609 298.856575h123.494638l-149.484569-150.222373v123.579573c0 14.729469 11.633968 26.6428 25.989931 26.6428z" fill="#B5DDFF" p-id="36048"></path><path d="M501.68098 683.448814c-6.765077 0-12.331863-0.26913-17.019628-0.820692-5.039783-0.591471-9.067516-1.407046-12.311397-2.49175-4.580319-1.524726-8.163937-3.850701-10.640338-6.907317-2.733251-3.353374-4.189416-7.424086-4.189416-11.744486V415.823544h-68.314898c-4.427846 0-8.491395-1.479701-11.751649-4.279467-2.577708-2.208295-4.660136-5.262864-6.178722-9.067516-1.204431-3.001357-2.054799-6.620791-2.591012-11.042497-0.470721-3.849678-0.700965-8.30413-0.700964-13.604856 0-5.453199 0.228197-10.018168 0.697894-13.954827 0.532119-4.497431 1.38351-8.16496 2.600221-11.202133 1.579985-3.954055 3.78828-7.067976 6.559393-9.246595 3.199878-2.51324 7.127328-3.837398 11.363815-3.837398h224.952379c3.928472 0 7.704472 1.242294 10.9197 3.593852 3.012613 2.213411 5.362124 5.398964 7.001461 9.484001 1.216711 3.048429 2.066055 6.707772 2.604315 11.20725 0.463558 3.931542 0.698918 8.622378 0.698918 13.956873 0 5.186116-0.23536 9.763364-0.700965 13.603833-0.542352 4.427846-1.390673 8.039093-2.596128 11.053753-1.576915 3.934612-3.798513 7.066953-6.607488 9.314133-3.290953 2.631944-7.204076 4.022617-11.319813 4.022617h-68.313875v245.662049c0 4.307096-1.452071 8.372691-4.199649 11.754718-2.482541 3.053546-6.063089 5.374404-10.643408 6.900154-3.231601 1.080611-7.260357 1.896186-12.301164 2.487657-4.685719 0.550539-10.253528 0.819668-17.017582 0.819669z" fill="#2C84FF" p-id="36049"></path><path d="M623.776759 377.828184c0 4.771677-0.208754 8.841366-0.617053 12.209067-0.412392 3.372817-1.029446 6.085602-1.851161 8.140401-0.824785 2.057869-1.850138 3.576455-3.083222 4.562922-1.233084 0.986467-2.589988 1.479701-4.070712 1.479701h-79.917144v257.265318c0 1.645476-0.535189 3.1262-1.602498 4.440125-1.071402 1.318018-2.836605 2.385327-5.303796 3.207042-2.466168 0.824785-5.796006 1.479701-9.989515 1.972934-4.194532 0.493234-9.41544 0.740874-15.663748 0.740874-6.251378 0-11.469216-0.246617-15.662724-0.740874-4.193509-0.49221-7.523347-1.14815-9.989515-1.972934-2.467191-0.821715-4.235464-1.889023-5.303796-3.207042-1.071402-1.313925-1.602498-2.793626-1.602498-4.440125V404.220275h-79.918167c-1.645476 0-3.044336-0.493234-4.193509-1.479701-1.152243-0.986467-2.13871-2.505054-2.960425-4.562922-0.824785-2.053776-1.440815-4.767584-1.850138-8.140401-0.412392-3.368724-0.617054-7.438413-0.617053-12.209067 0-4.933359 0.204661-9.125845 0.617053-12.579503 0.408299-3.453658 1.025353-6.204305 1.850138-8.263197 0.820692-2.053776 1.808182-3.5345 2.960425-4.440126 1.149173-0.901533 2.548032-1.356904 4.193509-1.356904h224.952378c1.479701 0 2.836605 0.454348 4.070712 1.356904 1.233084 0.905626 2.258437 2.38635 3.083222 4.440126 0.821715 2.057869 1.437745 4.809539 1.85116 8.263197 0.409322 3.453658 0.618077 7.647167 0.618077 12.579503z" fill="#FFFFFF" p-id="36050"></path></svg>