<?xml version="1.0" standalone="no"?><!DOCTYPE svg PUBLIC "-//W3C//DTD SVG 1.1//EN" "http://www.w3.org/Graphics/SVG/1.1/DTD/svg11.dtd"><svg height="20" width="20" xmlns:xlink="http://www.w3.org/1999/xlink" t="1482730876582" class="icon" style="" viewBox="0 0 1024 1024" version="1.1" xmlns="http://www.w3.org/2000/svg" p-id="36581"><defs><style type="text/css"></style></defs><path d="M679.271678 148.634202H231.092215c-14.367219 0-25.989931 11.913331-25.98993 26.643823v666.093541c0 14.702863 11.622712 26.638707 25.98993 26.638707h571.673078c14.355963 0 25.989931-11.935843 25.989931-26.638707V298.856575L679.271678 148.634202z" fill="#8183F1" p-id="36582"></path><path d="M828.755224 298.856575l-149.48457-150.222373h-19.48375v132.816958c0 20.476357 16.172331 37.035498 36.126803 37.035498h132.840494v-19.630083z" fill="#7A7CEF" p-id="36583"></path><path d="M705.261609 298.856575h123.494638l-149.484569-150.222373v123.579573c0 14.729469 11.633968 26.6428 25.989931 26.6428z" fill="#9799F7" p-id="36584"></path><path d="M666.738223 604.689029c9.873882-1.892093 17.358343-10.594289 17.358344-21.011546V438.489776c0-11.795651-9.596566-21.391193-21.392217-21.391193-5.755074 0-11.30958 2.366907-15.33629 6.513344l-65.433268 58.994626v-43.61024c0-24.987091-20.329001-45.315068-45.316091-45.315069H393.029398c-24.987091 0-45.315068 20.327978-45.315068 45.315069v143.589302c0 24.987091 20.327978 45.316092 45.315068 45.316092h143.589303c24.987091 0 45.316092-20.329001 45.316091-45.316092v-37.20332l67.087955 54.723345s8.214079 6.42534 17.715476 4.583389z" fill="#6C6EEF" p-id="36585"></path><path d="M534.24156 404.53443H395.407562c-20.261463 0-36.839023 16.57756-36.839023 36.839023v138.835022c0 20.261463 16.57756 36.839023 36.839023 36.839023H534.24156c20.261463 0 36.839023-16.57756 36.839023-36.839023V441.373453c0-20.261463-16.57756-36.839023-36.839023-36.839023z m128.46279 23.417339c-2.339278 0-4.498454 0.781806-6.2524 2.083451-0.542352 0.403183-1.044796 0.855484-1.500167 1.352811l-66.309219 59.784618v45.673225l67.242474 54.848189v-0.009209a10.476609 10.476609 0 0 0 6.820336 2.529613c5.796006 0 10.538007-4.742001 10.538007-10.538008V438.489776c-0.001023-5.796006-4.743024-10.538007-10.539031-10.538007z" fill="#FFFFFF" p-id="36586"></path></svg>