<?xml version="1.0" standalone="no"?><!DOCTYPE svg PUBLIC "-//W3C//DTD SVG 1.1//EN" "http://www.w3.org/Graphics/SVG/1.1/DTD/svg11.dtd"><svg height="20" width="20" xmlns:xlink="http://www.w3.org/1999/xlink" t="1482730861879" class="icon" style="" viewBox="0 0 1024 1024" version="1.1" xmlns="http://www.w3.org/2000/svg" p-id="36429"><defs><style type="text/css"></style></defs><path d="M873.972055 389.43657H151.694911V174.783769c0-9.611915 7.792477-17.404392 17.404392-17.404392h687.46836c9.611915 0 17.404392 7.792477 17.404392 17.404392v214.652801z" fill="#55C7F7" p-id="36430"></path><path d="M153.47137 365.41548h720.499662v24.743544h-720.499662z" fill="#9C9AB4" p-id="36431"></path><path d="M153.47137 339.64863h720.499662v24.743544h-720.499662z" fill="#3CD7FF" p-id="36432"></path><path d="M151.694911 389.752772h722.277144v232.057193H151.694911z" fill="#F95F5D" p-id="36433"></path><path d="M153.47137 389.991202h720.499662v24.743544h-720.499662zM153.47137 596.829014h720.499662v24.743544h-720.499662z" fill="#FF4A40" p-id="36434"></path><path d="M366.971929 389.991202v231.510748h-24.743544V389.991202zM683.819251 390.159024v231.341902h-24.743544V390.159024z" fill="#FF4A40" p-id="36435"></path><path d="M856.567663 853.867158H169.099303c-9.611915 0-17.404392-7.792477-17.404392-17.404392V621.809965h722.277144v214.652801c0 9.611915-7.792477 17.404392-17.404392 17.404392z" fill="#7ECF3B" p-id="36436"></path><path d="M153.47137 621.500926h720.499662v24.743544h-720.499662z" fill="#A4B44D" p-id="36437"></path><path d="M153.47137 645.096321h720.499662v24.743544h-720.499662z" fill="#70DD38" p-id="36438"></path><path d="M441.201537 157.696602h143.262868v696.170556h-143.262868z" fill="#FDAF42" p-id="36439"></path><path d="M441.201537 493.409596h143.262868v24.743544h-143.262868zM441.201537 389.991202h143.262868v24.743544h-143.262868zM441.201537 596.829014h143.262868v24.743544h-143.262868z" fill="#FFCF6E" p-id="36440"></path><path d="M441.201537 622.428042h143.262868v24.743544h-143.262868z" fill="#FDAF42" p-id="36441"></path><path d="M441.201537 364.392174h143.262868v24.743544h-143.262868z" fill="#FDA52A" p-id="36442"></path><path d="M391.71445 414.808424v182.094268h242.617713V414.808424H391.71445zM580.861344 556.313252c0 9.611915-7.792477 17.404392-17.404392 17.404391H462.58966c-9.611915 0-17.404392-7.792477-17.404392-17.404391v-94.959746c0-9.611915 7.792477-17.404392 17.404392-17.404391h100.867292c9.611915 0 17.404392 7.792477 17.404392 17.404391v94.959746z" fill="#FFFFFF" p-id="36443"></path><path d="M416.457993 365.41548h24.743544v24.743544h-24.743544z" fill="#C99469" p-id="36444"></path><path d="M416.457993 389.991202h24.743544v24.743544h-24.743544z" fill="#FF9F75" p-id="36445"></path><path d="M391.71445 365.41548h24.743543v24.743544h-24.743543z" fill="#8E82A7" p-id="36446"></path><path d="M391.71445 389.991202h24.743543v24.743544h-24.743543z" fill="#FF7173" p-id="36447"></path><path d="M584.464405 365.41548h24.743544v24.743544h-24.743544z" fill="#C99469" p-id="36448"></path><path d="M416.645259 596.829014h24.743543v24.743544h-24.743543z" fill="#FF926E" p-id="36449"></path><path d="M416.645259 621.500926h24.743543v24.743544h-24.743543z" fill="#CDA537" p-id="36450"></path><path d="M391.71445 621.500926h24.743543v24.743544h-24.743543z" fill="#97A43F" p-id="36451"></path><path d="M391.71445 596.829014h24.743543v24.743544h-24.743543zM609.460706 621.571534h-24.743544v-24.743543h24.743544z" fill="#FF627C" p-id="36452"></path><path d="M609.460706 646.24447h-24.743544v-24.743544h24.743544z" fill="#CDA537" p-id="36453"></path><path d="M634.391515 646.24447h-24.743544v-24.743544h24.743544z" fill="#97A43F" p-id="36454"></path><path d="M634.391515 621.571534h-24.743544v-24.743543h24.743544z" fill="#FF5762" p-id="36455"></path><path d="M584.464405 389.991202h24.743544v24.743544h-24.743544z" fill="#FF9F75" p-id="36456"></path><path d="M609.647971 365.41548h24.743544v24.743544h-24.743544z" fill="#8E82A7" p-id="36457"></path><path d="M609.647971 389.991202h24.743544v24.743544h-24.743544z" fill="#FF7073" p-id="36458"></path></svg>